<?xml version="1.0" encoding="UTF-8" standalone="no"?>
<!DOCTYPE svg PUBLIC "-//W3C//DTD SVG 1.1//EN"
 "http://www.w3.org/Graphics/SVG/1.1/DTD/svg11.dtd">
<!-- Generated by graphviz version 2.40.1 (20161225.0304)
 -->
<!-- Title: dependencies Pages: 1 -->
<svg width="1665pt" height="284pt"
 viewBox="0.00 0.00 1665.00 284.00" xmlns="http://www.w3.org/2000/svg" xmlns:xlink="http://www.w3.org/1999/xlink">
<g id="graph0" class="graph" transform="scale(1 1) rotate(0) translate(4 280)">
<title>dependencies</title>
<polygon fill="#ffffff" stroke="transparent" points="-4,4 -4,-280 1661,-280 1661,4 -4,4"/>
<text text-anchor="start" x="807.5091" y="-42.4" font-family="sans-serif" font-weight="bold" font-size="14.00" fill="#000000">Legend</text>
<polygon fill="#ffffb3" stroke="transparent" points="594.5,-10 594.5,-30 614.5,-30 614.5,-10 594.5,-10"/>
<text text-anchor="start" x="618.129" y="-15.4" font-family="sans-serif" font-size="14.00" fill="#000000"> &#160;Declarations</text>
<polygon fill="#8dd3c7" stroke="transparent" points="707.5,-10 707.5,-30 727.5,-30 727.5,-10 707.5,-10"/>
<text text-anchor="start" x="731.2251" y="-15.4" font-family="sans-serif" font-size="14.00" fill="#000000"> &#160;Module</text>
<polygon fill="#80b1d3" stroke="transparent" points="793.5,-10 793.5,-30 813.5,-30 813.5,-10 793.5,-10"/>
<text text-anchor="start" x="817.2812" y="-15.4" font-family="sans-serif" font-size="14.00" fill="#000000"> &#160;Bootstrap</text>
<polygon fill="#fdb462" stroke="transparent" points="890.5,-10 890.5,-30 910.5,-30 910.5,-10 890.5,-10"/>
<text text-anchor="start" x="914.1732" y="-15.4" font-family="sans-serif" font-size="14.00" fill="#000000"> &#160;Providers</text>
<polygon fill="#fb8072" stroke="transparent" points="986.5,-10 986.5,-30 1006.5,-30 1006.5,-10 986.5,-10"/>
<text text-anchor="start" x="1010.2258" y="-15.4" font-family="sans-serif" font-size="14.00" fill="#000000"> &#160;Exports</text>
<g id="clust1" class="cluster">
<title>cluster_AppModule</title>
<polygon fill="none" stroke="#000000" stroke-dasharray="1,5" points="8,-70 8,-268 1649,-268 1649,-70 8,-70"/>
</g>
<g id="clust2" class="cluster">
<title>cluster_AppModule_declarations</title>
<polygon fill="none" stroke="#000000" points="1014,-78 1014,-130 1641,-130 1641,-78 1014,-78"/>
</g>
<g id="clust7" class="cluster">
<title>cluster_AppModule_imports</title>
<polygon fill="none" stroke="#000000" points="472,-78 472,-130 1006,-130 1006,-78 472,-78"/>
</g>
<g id="clust9" class="cluster">
<title>cluster_AppModule_bootstrap</title>
<polygon fill="none" stroke="#000000" points="823,-208 823,-260 947,-260 947,-208 823,-208"/>
</g>
<g id="clust10" class="cluster">
<title>cluster_AppModule_providers</title>
<polygon fill="none" stroke="#000000" points="16,-78 16,-130 464,-130 464,-78 16,-78"/>
</g>
<!-- AppComponent -->
<g id="node1" class="node">
<title>AppComponent</title>
<polygon fill="#ffffb3" stroke="#000000" points="1632.9399,-122 1527.0601,-122 1527.0601,-86 1632.9399,-86 1632.9399,-122"/>
<text text-anchor="middle" x="1580" y="-99.8" font-family="Times,serif" font-size="14.00" fill="#000000">AppComponent</text>
</g>
<!-- AppModule -->
<g id="node5" class="node">
<title>AppModule</title>
<polygon fill="#8dd3c7" stroke="#000000" points="926.6571,-187 923.6571,-191 902.6571,-191 899.6571,-187 843.3429,-187 843.3429,-151 926.6571,-151 926.6571,-187"/>
<text text-anchor="middle" x="885" y="-164.8" font-family="Times,serif" font-size="14.00" fill="#000000">AppModule</text>
</g>
<!-- AppComponent&#45;&gt;AppModule -->
<g id="edge1" class="edge">
<title>AppComponent&#45;&gt;AppModule</title>
<path fill="none" stroke="#000000" d="M1580,-122.0109C1580,-144.4852 1580,-180 1580,-180 1580,-180 936.9102,-180 936.9102,-180"/>
<polygon fill="#000000" stroke="#000000" points="936.9103,-176.5001 926.9102,-180 936.9102,-183.5001 936.9103,-176.5001"/>
</g>
<!-- EstimatedEntriesComponent -->
<g id="node2" class="node">
<title>EstimatedEntriesComponent</title>
<polygon fill="#ffffb3" stroke="#000000" points="1509.4748,-122 1332.5252,-122 1332.5252,-86 1509.4748,-86 1509.4748,-122"/>
<text text-anchor="middle" x="1421" y="-99.8" font-family="Times,serif" font-size="14.00" fill="#000000">EstimatedEntriesComponent</text>
</g>
<!-- EstimatedEntriesComponent&#45;&gt;AppModule -->
<g id="edge2" class="edge">
<title>EstimatedEntriesComponent&#45;&gt;AppModule</title>
<path fill="none" stroke="#000000" d="M1421,-122.1289C1421,-142.5724 1421,-173 1421,-173 1421,-173 937.059,-173 937.059,-173"/>
<polygon fill="#000000" stroke="#000000" points="937.0591,-169.5001 927.059,-173 937.059,-176.5001 937.0591,-169.5001"/>
</g>
<!-- SyllabusDetailsComponent -->
<g id="node3" class="node">
<title>SyllabusDetailsComponent</title>
<polygon fill="#ffffb3" stroke="#000000" points="1314.7077,-122 1145.2923,-122 1145.2923,-86 1314.7077,-86 1314.7077,-122"/>
<text text-anchor="middle" x="1230" y="-99.8" font-family="Times,serif" font-size="14.00" fill="#000000">SyllabusDetailsComponent</text>
</g>
<!-- SyllabusDetailsComponent&#45;&gt;AppModule -->
<g id="edge3" class="edge">
<title>SyllabusDetailsComponent&#45;&gt;AppModule</title>
<path fill="none" stroke="#000000" d="M1230,-122.2667C1230,-140.5552 1230,-166 1230,-166 1230,-166 936.9589,-166 936.9589,-166"/>
<polygon fill="#000000" stroke="#000000" points="936.9589,-162.5001 926.9589,-166 936.9588,-169.5001 936.9589,-162.5001"/>
</g>
<!-- TestComponent -->
<g id="node4" class="node">
<title>TestComponent</title>
<polygon fill="#ffffb3" stroke="#000000" points="1127.9357,-122 1022.0643,-122 1022.0643,-86 1127.9357,-86 1127.9357,-122"/>
<text text-anchor="middle" x="1075" y="-99.8" font-family="Times,serif" font-size="14.00" fill="#000000">TestComponent</text>
</g>
<!-- TestComponent&#45;&gt;AppModule -->
<g id="edge4" class="edge">
<title>TestComponent&#45;&gt;AppModule</title>
<path fill="none" stroke="#000000" d="M1075,-122.0091C1075,-138.0494 1075,-159 1075,-159 1075,-159 936.6963,-159 936.6963,-159"/>
<polygon fill="#000000" stroke="#000000" points="936.6963,-155.5001 926.6963,-159 936.6963,-162.5001 936.6963,-155.5001"/>
</g>
<!-- AppComponent  -->
<g id="node10" class="node">
<title>AppComponent </title>
<polygon fill="#80b1d3" stroke="#000000" points="939.439,-252 830.561,-252 830.561,-216 939.439,-216 939.439,-252"/>
<text text-anchor="middle" x="885" y="-229.8" font-family="Times,serif" font-size="14.00" fill="#000000">AppComponent </text>
</g>
<!-- AppModule&#45;&gt;AppComponent  -->
<g id="edge9" class="edge">
<title>AppModule&#45;&gt;AppComponent </title>
<path fill="none" stroke="#000000" stroke-dasharray="1,5" d="M885,-187.1061C885,-187.1061 885,-205.991 885,-205.991"/>
<polygon fill="#000000" stroke="#000000" points="881.5001,-205.9909 885,-215.991 888.5001,-205.991 881.5001,-205.9909"/>
</g>
<!-- BrowserModule -->
<g id="node6" class="node">
<title>BrowserModule</title>
<polygon fill="#8dd3c7" stroke="#000000" points="998.4734,-122 995.4734,-126 974.4734,-126 971.4734,-122 891.5266,-122 891.5266,-86 998.4734,-86 998.4734,-122"/>
<text text-anchor="middle" x="945" y="-99.8" font-family="Times,serif" font-size="14.00" fill="#000000">BrowserModule</text>
</g>
<!-- BrowserModule&#45;&gt;AppModule -->
<g id="edge5" class="edge">
<title>BrowserModule&#45;&gt;AppModule</title>
<path fill="none" stroke="#000000" d="M909.1708,-122.1061C909.1708,-122.1061 909.1708,-140.991 909.1708,-140.991"/>
<polygon fill="#000000" stroke="#000000" points="905.6708,-140.9909 909.1708,-150.991 912.6708,-140.991 905.6708,-140.9909"/>
</g>
<!-- FormsModule -->
<g id="node7" class="node">
<title>FormsModule</title>
<polygon fill="#8dd3c7" stroke="#000000" points="873.8288,-122 870.8288,-126 849.8288,-126 846.8288,-122 778.1712,-122 778.1712,-86 873.8288,-86 873.8288,-122"/>
<text text-anchor="middle" x="826" y="-99.8" font-family="Times,serif" font-size="14.00" fill="#000000">FormsModule</text>
</g>
<!-- FormsModule&#45;&gt;AppModule -->
<g id="edge6" class="edge">
<title>FormsModule&#45;&gt;AppModule</title>
<path fill="none" stroke="#000000" d="M858.418,-122.1061C858.418,-122.1061 858.418,-140.991 858.418,-140.991"/>
<polygon fill="#000000" stroke="#000000" points="854.918,-140.9909 858.418,-150.991 861.918,-140.991 854.918,-140.9909"/>
</g>
<!-- HttpModule -->
<g id="node8" class="node">
<title>HttpModule</title>
<polygon fill="#8dd3c7" stroke="#000000" points="760.4387,-122 757.4387,-126 736.4387,-126 733.4387,-122 675.5613,-122 675.5613,-86 760.4387,-86 760.4387,-122"/>
<text text-anchor="middle" x="718" y="-99.8" font-family="Times,serif" font-size="14.00" fill="#000000">HttpModule</text>
</g>
<!-- HttpModule&#45;&gt;AppModule -->
<g id="edge7" class="edge">
<title>HttpModule&#45;&gt;AppModule</title>
<path fill="none" stroke="#000000" d="M718,-122.0091C718,-138.0494 718,-159 718,-159 718,-159 833.2896,-159 833.2896,-159"/>
<polygon fill="#000000" stroke="#000000" points="833.2897,-162.5001 843.2896,-159 833.2896,-155.5001 833.2897,-162.5001"/>
</g>
<!-- RouterModule.forRoot(args) -->
<g id="node9" class="node">
<title>RouterModule.forRoot(args)</title>
<polygon fill="#8dd3c7" stroke="#000000" points="657.8419,-122 654.8419,-126 633.8419,-126 630.8419,-122 480.1581,-122 480.1581,-86 657.8419,-86 657.8419,-122"/>
<text text-anchor="middle" x="569" y="-99.8" font-family="Times,serif" font-size="14.00" fill="#000000">RouterModule.forRoot(args)</text>
</g>
<!-- RouterModule.forRoot(args)&#45;&gt;AppModule -->
<g id="edge8" class="edge">
<title>RouterModule.forRoot(args)&#45;&gt;AppModule</title>
<path fill="none" stroke="#000000" d="M569,-122.2667C569,-140.5552 569,-166 569,-166 569,-166 833.0376,-166 833.0376,-166"/>
<polygon fill="#000000" stroke="#000000" points="833.0377,-169.5001 843.0376,-166 833.0376,-162.5001 833.0377,-169.5001"/>
</g>
<!-- EstimatedEntriesService -->
<g id="node11" class="node">
<title>EstimatedEntriesService</title>
<ellipse fill="#fdb462" stroke="#000000" cx="350" cy="-104" rx="105.9286" ry="18"/>
<text text-anchor="middle" x="350" y="-99.8" font-family="Times,serif" font-size="14.00" fill="#000000">EstimatedEntriesService</text>
</g>
<!-- EstimatedEntriesService&#45;&gt;AppModule -->
<g id="edge10" class="edge">
<title>EstimatedEntriesService&#45;&gt;AppModule</title>
<path fill="none" stroke="#000000" d="M350,-122.1289C350,-142.5724 350,-173 350,-173 350,-173 833.0194,-173 833.0194,-173"/>
<polygon fill="#000000" stroke="#000000" points="833.0195,-176.5001 843.0194,-173 833.0194,-169.5001 833.0195,-176.5001"/>
</g>
<!-- SyllabusDetailsService -->
<g id="node12" class="node">
<title>SyllabusDetailsService</title>
<ellipse fill="#fdb462" stroke="#000000" cx="125" cy="-104" rx="100.7133" ry="18"/>
<text text-anchor="middle" x="125" y="-99.8" font-family="Times,serif" font-size="14.00" fill="#000000">SyllabusDetailsService</text>
</g>
<!-- SyllabusDetailsService&#45;&gt;AppModule -->
<g id="edge11" class="edge">
<title>SyllabusDetailsService&#45;&gt;AppModule</title>
<path fill="none" stroke="#000000" d="M125,-122.0109C125,-144.4852 125,-180 125,-180 125,-180 833.3283,-180 833.3283,-180"/>
<polygon fill="#000000" stroke="#000000" points="833.3284,-183.5001 843.3283,-180 833.3283,-176.5001 833.3284,-183.5001"/>
</g>
</g>
</svg>
